<svg xmlns:inkscape="http://www.inkscape.org/namespaces/inkscape" xmlns:sodipodi="http://sodipodi.sourceforge.net/DTD/sodipodi-0.dtd" xmlns="http://www.w3.org/2000/svg" xmlns:svg="http://www.w3.org/2000/svg" viewBox="0 0 12.69922 15.8740225" version="1.1" x="0px" y="0px"><g transform="translate(-99.36225,-11.269035)"><path style="color:#000000;" d="m 108.85156,20.728516 a 0.39687499,0.39687499 0 0 0 -0.39648,0.396484 0.39687499,0.39687499 0 0 0 0.39648,0.396484 h 1.75196 a 0.39687499,0.39687499 0 0 0 0.39843,-0.396484 0.39687499,0.39687499 0 0 0 -0.39843,-0.396484 z" fill="#000000" stroke-linecap="round" stroke-linejoin="round"/><path style="color:#000000;" d="m 110.32422,20.84375 -0.87695,0.876953 a 0.39687499,0.39687499 0 0 0 0,0.560547 0.39687499,0.39687499 0 0 0 0.5625,0 l 0.875,-0.876953 a 0.39687499,0.39687499 0 0 0 0,-0.560547 0.39687499,0.39687499 0 0 0 -0.56055,0 z" fill="#000000" stroke-linecap="round" stroke-linejoin="round"/><path style="color:#000000;" d="m 109.72852,19.851562 a 0.39687499,0.39687499 0 0 0 -0.28125,0.115235 0.39687499,0.39687499 0 0 0 0,0.5625 l 0.87695,0.875 a 0.39687499,0.39687499 0 0 0 0.56055,0 0.39687499,0.39687499 0 0 0 0,-0.560547 l -0.875,-0.876953 a 0.39687499,0.39687499 0 0 0 -0.28125,-0.115235 z" fill="#000000" stroke-linecap="round" stroke-linejoin="round"/><path style="color:#000000;" d="m 105.05469,13.716797 c -0.84288,0 -1.51349,0.332088 -1.99024,0.792969 -0.47675,0.46088 -0.7744,1.037326 -0.96875,1.560546 a 0.39687499,0.39687499 0 0 0 0.23438,0.509766 0.39687499,0.39687499 0 0 0 0.50976,-0.234375 c 0.16751,-0.450969 0.4205,-0.922541 0.77539,-1.265625 0.3549,-0.343084 0.79612,-0.570312 1.43946,-0.570312 h 0.88086 a 0.39687499,0.39687499 0 0 0 0.39648,-0.396485 0.39687499,0.39687499 0 0 0 -0.39648,-0.396484 z" fill="#000000" stroke-linecap="round" stroke-linejoin="round"/><path style="color:#000000;" d="m 102.33008,18.65625 a 0.39687499,0.39687499 0 0 0 -0.23438,0.511719 c 0.19431,0.523272 0.49199,1.097604 0.96875,1.558593 0.47677,0.46099 1.14723,0.794922 1.99024,0.794922 h 0.88086 a 0.39687499,0.39687499 0 0 0 0.39648,-0.396484 0.39687499,0.39687499 0 0 0 -0.39648,-0.396484 h -0.88086 c -0.64344,0 -1.08454,-0.229091 -1.43946,-0.572266 -0.35492,-0.343175 -0.60791,-0.814604 -0.77539,-1.265625 a 0.39687499,0.39687499 0 0 0 -0.50976,-0.234375 z" fill="#000000" stroke-linecap="round" stroke-linejoin="round"/><path style="color:#000000;" d="m 103.58398,17.222656 a 0.39687499,0.39687499 0 0 0 -0.39648,0.396485 0.39687499,0.39687499 0 0 0 0.39648,0.396484 h 2.35157 a 0.39687499,0.39687499 0 0 0 0.39648,-0.396484 0.39687499,0.39687499 0 0 0 -0.39648,-0.396485 z" fill="#000000" stroke-linecap="round" stroke-linejoin="round"/><path style="color:#000000;" d="m 108.85156,17.222656 a 0.39687499,0.39687499 0 0 0 -0.39648,0.396485 0.39687499,0.39687499 0 0 0 0.39648,0.396484 h 1.75196 a 0.39687499,0.39687499 0 0 0 0.39843,-0.396484 0.39687499,0.39687499 0 0 0 -0.39843,-0.396485 z" fill="#000000" stroke-linecap="round" stroke-linejoin="round"/><path style="color:#000000;" d="m 110.32422,17.337891 -0.87695,0.876953 a 0.39687499,0.39687499 0 0 0 0,0.560547 0.39687499,0.39687499 0 0 0 0.5625,0 l 0.875,-0.876954 a 0.39687499,0.39687499 0 0 0 0,-0.560546 0.39687499,0.39687499 0 0 0 -0.56055,0 z" fill="#000000" stroke-linecap="round" stroke-linejoin="round"/><path style="color:#000000;" d="m 109.72852,16.345703 a 0.39687499,0.39687499 0 0 0 -0.28125,0.115234 0.39687499,0.39687499 0 0 0 0,0.5625 l 0.87695,0.875 a 0.39687499,0.39687499 0 0 0 0.56055,0 0.39687499,0.39687499 0 0 0 0,-0.560546 l -0.875,-0.876954 a 0.39687499,0.39687499 0 0 0 -0.28125,-0.115234 z" fill="#000000" stroke-linecap="round" stroke-linejoin="round"/><path style="color:#000000;" d="m 108.85156,13.716797 a 0.39687499,0.39687499 0 0 0 -0.39648,0.396484 0.39687499,0.39687499 0 0 0 0.39648,0.396485 h 1.75196 a 0.39687499,0.39687499 0 0 0 0.39843,-0.396485 0.39687499,0.39687499 0 0 0 -0.39843,-0.396484 z" fill="#000000" stroke-linecap="round" stroke-linejoin="round"/><path style="color:#000000;" d="m 110.32422,13.832031 -0.87695,0.876953 a 0.39687499,0.39687499 0 0 0 0,0.560547 0.39687499,0.39687499 0 0 0 0.5625,0 l 0.875,-0.876953 a 0.39687499,0.39687499 0 0 0 0,-0.560547 0.39687499,0.39687499 0 0 0 -0.56055,0 z" fill="#000000" stroke-linecap="round" stroke-linejoin="round"/><path style="color:#000000;" d="m 109.72852,12.839844 a 0.39687499,0.39687499 0 0 0 -0.28125,0.115234 0.39687499,0.39687499 0 0 0 0,0.5625 l 0.87695,0.875 a 0.39687499,0.39687499 0 0 0 0.56055,0 0.39687499,0.39687499 0 0 0 0,-0.560547 l -0.875,-0.876953 a 0.39687499,0.39687499 0 0 0 -0.28125,-0.115234 z" fill="#000000" stroke-linecap="round" stroke-linejoin="round"/><path style="color:#000000;" d="m 106.80664,-18.888672 c -0.69618,-4e-6 -1.26758,0.573332 -1.26758,1.269531 0,0.6962 0.5714,1.269536 1.26758,1.269532 0.69617,-4e-6 1.26953,-0.573338 1.26953,-1.269532 0,-0.696193 -0.57336,-1.269527 -1.26953,-1.269531 z m 0,0.794922 c 0.26701,1e-6 0.47656,0.207206 0.47656,0.474609 0,0.267404 -0.20955,0.476561 -0.47656,0.476563 -0.26702,2e-6 -0.47461,-0.209156 -0.47461,-0.476563 0,-0.267406 0.20759,-0.474611 0.47461,-0.474609 z" transform="scale(1,-1)" fill="#000000" stroke-linecap="round" stroke-linejoin="round"/><path style="color:#000000;" d="m 102.13477,15.771484 c -1.015,-10e-7 -1.84571,0.832538 -1.84571,1.847657 0,1.015118 0.83071,1.845704 1.84571,1.845703 1.01499,1e-6 1.8457,-0.830585 1.8457,-1.845703 0,-1.015119 -0.83071,-1.847658 -1.8457,-1.847657 z m 0,0.794922 c 0.58587,0 1.05273,0.466443 1.05273,1.052735 0,0.586291 -0.46686,1.052735 -1.05273,1.052734 -0.58587,1e-6 -1.05274,-0.466443 -1.05274,-1.052734 0,-0.586292 0.46686,-1.052735 1.05274,-1.052735 z" fill="#000000" stroke-linecap="round" stroke-linejoin="round"/><path style="color:#000000;" d="m 106.80664,-15.382813 c -0.69618,-4e-6 -1.26758,0.573333 -1.26758,1.269532 0,0.696199 0.5714,1.269535 1.26758,1.269531 0.69617,-4e-6 1.26953,-0.573338 1.26953,-1.269531 0,-0.696194 -0.57336,-1.269528 -1.26953,-1.269532 z m 0,0.794922 c 0.26701,2e-6 0.47656,0.207206 0.47656,0.47461 0,0.267404 -0.20955,0.476561 -0.47656,0.476562 -0.26702,2e-6 -0.47461,-0.209156 -0.47461,-0.476562 0,-0.267406 0.20759,-0.474611 0.47461,-0.47461 z" transform="scale(1,-1)" fill="#000000" stroke-linecap="round" stroke-linejoin="round"/><path style="color:#000000;" d="m 106.80664,-22.394531 c -0.69618,-5e-6 -1.26758,0.573332 -1.26758,1.269531 0,0.696199 0.5714,1.269536 1.26758,1.269531 0.69617,-3e-6 1.26953,-0.573337 1.26953,-1.269531 0,-0.696194 -0.57336,-1.269528 -1.26953,-1.269531 z m 0,0.794922 c 0.26701,1e-6 0.47656,0.207205 0.47656,0.474609 0,0.267404 -0.20955,0.476561 -0.47656,0.476563 -0.26702,1e-6 -0.47461,-0.209157 -0.47461,-0.476563 0,-0.267406 0.20759,-0.474611 0.47461,-0.474609 z" transform="scale(1,-1)" fill="#000000" stroke-linecap="round" stroke-linejoin="round"/></g><text x="0" y="27.699218000000002" fill="#000000" font-size="5px" font-weight="bold" font-family="'Helvetica Neue', Helvetica, Arial-Unicode, Arial, Sans-serif">Created by Meko</text><text x="0" y="32.699218" fill="#000000" font-size="5px" font-weight="bold" font-family="'Helvetica Neue', Helvetica, Arial-Unicode, Arial, Sans-serif">from the Noun Project</text></svg>