<?xml version="1.0" encoding="UTF-8"?>
<!-- Uploaded to: SVG Find, www.svgrepo.com, Generator: SVG Find Mixer Tools -->
<svg width="800px" height="800px" version="1.1" viewBox="144 144 512 512" xmlns="http://www.w3.org/2000/svg">
 <defs>
  <clipPath id="a">
   <path d="m152 148.09h496v503.81h-496z"/>
  </clipPath>
 </defs>
 <g clip-path="url(#a)">
  <path d="m623.13 341.38h-71.953v-29.617c0-2.207-1.7891-4-4-4h-17.809c-4.0234-42.848-23.566-82.562-55.293-112.18-32.801-30.625-75.543-47.488-120.34-47.488-97.273 0-176.41 79.074-176.41 176.27v96.844h-4.4102c-2.207 0-4 1.7891-4 4v22.824c-10.43 6.1172-16.82 17.18-16.82 29.395v65.434c0 2.207 1.7891 4 4 4h12.824v46.422c0 2.207 1.7891 4 4 4h50.461c2.207 0 4-1.7891 4-4v-46.422h12.824c2.207 0 4-1.7891 4-4v-65.434c0-12.215-6.3906-23.277-16.824-29.395l-0.003906-22.828c0-2.207-1.7891-4-4-4l-4.4062 0.003907v-96.844c0-74.25 60.457-134.66 134.77-134.66 67.586 0 125.49 51.508 133.75 118.05h-15.996c-2.207 0-4 1.7891-4 4v29.617h-71.961c-13.652 0-24.762 11.109-24.762 24.762v260.99c0 13.66 11.109 24.77 24.762 24.77h227.61c13.66 0 24.77-11.113 24.77-24.77v-260.99c0-13.652-11.113-24.762-24.773-24.762zm-92.562 272.91c0 2.3047-0.89453 4.4648-2.5273 6.0898-1.625 1.625-3.7812 2.5195-6.0781 2.5195h-25.25c-4.7461 0-8.6055-3.8594-8.6055-8.6055 0-2.2969 0.89453-4.457 2.5234-6.0859 1.6172-1.625 3.7773-2.5195 6.082-2.5195h25.25c4.7422-0.007812 8.6055 3.8555 8.6055 8.6016zm-311.2-25.004h-42.461v-42.426h42.465zm0-142.86h-42.461v-17.215h42.465zm256.11-130.66h67.695v25.621h-67.695z"/>
 </g>
 <path d="m189.74 580.47h16.812c2.207 0 4-1.7891 4-4 0-2.207-1.7891-4-4-4l-16.812 0.003906c-2.207 0-4 1.7891-4 4 0 2.207 1.793 3.9961 4 3.9961z"/>
</svg>