<?xml version="1.0" standalone="no"?>
<!DOCTYPE svg PUBLIC "-//W3C//DTD SVG 20010904//EN"
 "http://www.w3.org/TR/2001/REC-SVG-20010904/DTD/svg10.dtd">
<svg version="1.0" xmlns="http://www.w3.org/2000/svg"
 width="626.000000pt" height="626.000000pt" viewBox="0 0 626.000000 626.000000"
 preserveAspectRatio="xMidYMid meet">

<g transform="translate(0.000000,626.000000) scale(0.100000,-0.100000)"
fill="#000000" stroke="none">
<path d="M3061 5790 c-34 -15 -81 -50 -81 -61 0 -6 5 -7 12 -3 7 4 8 3 4 -5
-4 -6 -11 -9 -16 -6 -12 7 -30 -51 -30 -97 0 -107 97 -190 204 -174 115 19
180 131 139 240 -26 71 -77 109 -151 113 -31 1 -68 -2 -81 -7z m56 -6 c-3 -3
-12 -4 -19 -1 -8 3 -5 6 6 6 11 1 17 -2 13 -5z m103 -24 c0 -5 -2 -10 -4 -10
-3 0 -8 5 -11 10 -3 6 -1 10 4 10 6 0 11 -4 11 -10z m16 -46 c1 -9 0 -13 -4
-10 -3 4 -7 14 -8 22 -1 9 0 13 4 10 3 -4 7 -14 8 -22z m-206 12 c0 -3 -4 -8
-10 -11 -5 -3 -10 -1 -10 4 0 6 5 11 10 11 6 0 10 -2 10 -4z m267 -108 c-3 -8
-6 -5 -6 6 -1 11 2 17 5 13 3 -3 4 -12 1 -19z m-293 -94 c18 -17 22 -39 6 -29
-11 7 -33 45 -26 45 2 0 12 -7 20 -16z m237 -21 c13 -16 12 -17 -3 -4 -10 7
-18 15 -18 17 0 8 8 3 21 -13z"/>
<path d="M3070 5085 l0 -225 58 0 c35 0 52 4 43 9 -9 6 -10 11 -2 15 7 5 11
74 11 217 l0 209 -55 0 -55 0 0 -225z m76 -203 c-8 -8 -19 -11 -25 -7 -16 9
-6 21 18 21 18 0 19 -2 7 -14z"/>
<path d="M1293 5060 c-16 -6 -21 -15 -17 -27 5 -15 4 -16 -5 -3 -9 13 -12 13
-28 -3 -14 -14 -15 -19 -5 -26 11 -7 10 -9 -3 -14 -11 -5 -14 -3 -9 6 4 6 -1
5 -10 -4 -26 -24 -33 -124 -12 -172 10 -25 20 -36 27 -31 7 4 9 3 5 -4 -18
-29 98 -78 158 -67 45 9 99 42 90 57 -4 7 -3 8 4 4 13 -8 39 29 52 75 12 40 2
109 -12 87 -6 -8 -7 -4 -3 13 8 32 -28 79 -79 103 -37 17 -117 20 -153 6z
m217 -74 c0 -6 -7 0 -16 12 -8 12 -20 19 -26 16 -7 -5 -8 -2 -4 5 6 9 13 8 27
-5 10 -9 19 -22 19 -28z m-275 -176 c3 -5 1 -10 -4 -10 -6 0 -11 5 -11 10 0 6
2 10 4 10 3 0 8 -4 11 -10z m30 -40 c3 -5 1 -10 -4 -10 -6 0 -11 5 -11 10 0 6
2 10 4 10 3 0 8 -4 11 -10z"/>
<path d="M4810 5057 c-14 -8 -24 -19 -23 -25 2 -6 -4 -9 -11 -6 -24 9 -66 -75
-66 -130 0 -53 24 -121 40 -111 6 4 9 1 8 -6 -4 -18 63 -61 89 -56 12 2 20 0
17 -4 -6 -10 40 -10 76 0 17 5 25 14 24 29 -1 12 3 19 7 16 5 -3 7 -10 4 -15
-4 -5 -2 -9 3 -9 11 0 49 35 66 63 18 27 33 123 19 114 -6 -4 -8 3 -6 16 4 26
-33 91 -47 82 -6 -4 -9 -1 -8 7 2 7 -5 12 -14 12 -10 -1 -15 2 -12 7 16 26
-121 39 -166 16z m-50 -74 c-1 -10 -39 -60 -40 -51 0 14 23 58 32 58 4 0 8 -3
8 -7z m255 -203 c-17 -19 -41 -18 -29 1 3 5 9 7 14 4 5 -3 11 -1 15 5 3 5 9
10 12 10 3 0 -2 -9 -12 -20z m-225 -15 c7 -9 8 -15 2 -15 -5 0 -12 7 -16 15
-3 8 -4 15 -2 15 2 0 9 -7 16 -15z"/>
<path d="M2980 4724 c-14 -2 -59 -9 -100 -15 -89 -12 -232 -49 -315 -80 -50
-19 -56 -24 -40 -31 16 -6 14 -7 -7 -3 -20 4 -53 -7 -120 -42 l-93 -48 45 -3
c25 -1 84 -9 131 -17 47 -9 95 -13 105 -9 13 4 15 3 6 -3 -15 -11 103 -47 120
-37 7 5 8 2 3 -6 -6 -10 -2 -11 18 -6 14 3 29 2 32 -4 3 -6 -2 -8 -12 -5 -22
7 1 -5 126 -62 51 -23 98 -40 105 -36 6 3 8 2 3 -2 -10 -11 110 -78 125 -69 6
4 8 3 4 -4 -14 -23 12 -20 57 7 26 15 44 31 40 36 -5 4 -2 5 5 1 15 -9 93 34
85 47 -3 6 -1 7 5 3 6 -4 37 5 69 20 79 36 197 81 235 89 23 6 27 9 17 17 -10
7 -8 8 7 3 12 -3 52 2 90 11 38 8 104 19 148 22 l78 7 -81 43 c-45 24 -89 41
-97 38 -8 -3 -13 -2 -9 3 10 17 -201 86 -357 116 -79 16 -374 29 -428 19z
m-23 -20 c-3 -3 -12 -4 -19 -1 -8 3 -5 6 6 6 11 1 17 -2 13 -5z m-192 -34
c-11 -5 -27 -9 -35 -9 -9 0 -8 4 5 9 11 5 27 9 35 9 9 0 8 -4 -5 -9z m-130
-40 c3 -5 0 -7 -8 -4 -8 3 -17 -2 -20 -10 -4 -9 -14 -16 -24 -15 -16 0 -16 1
2 9 11 5 16 9 10 9 -5 1 -3 6 5 11 19 12 27 12 35 0z m1031 -17 c-6 -6 -36 9
-36 18 0 5 9 4 20 -3 10 -7 18 -14 16 -15z m34 -3 c0 -5 -4 -10 -10 -10 -5 0
-10 5 -10 10 0 6 5 10 10 10 6 0 10 -4 10 -10z m-1259 -55 c-24 -14 -46 -23
-48 -21 -5 5 67 45 82 45 6 1 -10 -11 -34 -24z m1406 -11 c-3 -3 -12 -4 -19
-1 -8 3 -5 6 6 6 11 1 17 -2 13 -5z m43 -19 c0 -12 -19 -12 -23 0 -4 9 -1 12
9 8 7 -3 14 -7 14 -8z m-1525 -5 c-3 -5 -12 -10 -18 -10 -7 0 -6 4 3 10 19 12
23 12 15 0z m282 -56 c-3 -3 -12 -4 -19 -1 -8 3 -5 6 6 6 11 1 17 -2 13 -5z
m403 -149 c0 -2 -6 -8 -13 -14 -10 -8 -14 -7 -14 2 0 8 6 14 14 14 7 0 13 -1
13 -2z m35 -45 c3 -6 -1 -7 -9 -4 -18 7 -21 14 -7 14 6 0 13 -4 16 -10z"/>
<path d="M1595 4680 c-17 -19 -21 -28 -10 -20 19 14 19 14 6 -3 -8 -10 -20
-16 -27 -13 -6 2 -15 2 -18 -2 -10 -9 56 -72 68 -65 6 3 8 2 3 -2 -9 -11 23
-46 35 -39 4 3 7 0 6 -8 -2 -7 3 -12 10 -10 6 1 11 -4 10 -10 -2 -7 3 -12 10
-10 8 1 11 -1 8 -6 -7 -12 48 -64 58 -55 4 5 6 1 4 -7 -2 -8 3 -14 10 -12 8 1
11 -1 8 -6 -7 -12 48 -64 59 -55 4 5 5 3 2 -3 -4 -7 0 -17 9 -24 12 -11 21 -7
54 25 22 21 37 42 34 47 -3 4 -10 6 -15 2 -5 -3 -7 -10 -4 -15 3 -5 -1 -6 -9
-3 -9 3 -16 1 -16 -5 0 -6 -6 -11 -12 -11 -7 1 -3 9 10 20 27 22 20 44 -23 78
-13 11 -21 22 -18 26 3 3 2 6 -4 6 -10 0 -81 65 -82 76 -1 2 -3 4 -5 5 -6 0
-65 59 -102 101 l-29 33 -30 -35z m39 -2 c-3 -4 -9 -8 -15 -8 -5 0 -9 4 -9 8
0 5 7 9 15 9 8 0 12 -4 9 -9z m-37 -59 c2 -17 -1 -18 -13 -8 -13 11 -10 20 11
29 1 0 1 -9 2 -21z m224 -226 c13 -16 12 -17 -3 -4 -10 7 -18 15 -18 17 0 8 8
3 21 -13z"/>
<path d="M4468 4552 l-158 -158 41 -39 40 -38 39 38 c22 21 36 43 33 49 -3 6
-2 7 2 3 5 -4 62 45 127 110 l118 117 -37 38 c-20 21 -40 38 -43 38 -3 0 -76
-71 -162 -158z m191 109 c0 -12 -2 -11 -9 4 -5 11 -9 16 -9 12 -1 -5 -6 -5
-11 -2 -6 4 -8 11 -4 16 8 14 34 -9 33 -30z m41 -26 c0 -1 -10 -10 -22 -21
-14 -12 -18 -13 -10 -3 6 9 10 18 7 21 -3 2 2 5 10 5 8 0 15 -1 15 -2z m-125
-45 c-3 -5 -12 -10 -18 -10 -7 0 -6 4 3 10 19 12 23 12 15 0z m-103 -57 c-5
-10 -7 -25 -5 -33 4 -12 3 -12 -5 -1 -8 11 -12 10 -21 -5 -6 -11 -11 -14 -11
-7 0 10 40 62 48 63 1 0 -1 -8 -6 -17z m111 -14 c-8 -8 -13 -7 -18 2 -5 8 -4
10 3 5 7 -4 12 -2 12 5 0 7 3 9 7 6 4 -4 2 -12 -4 -18z m-179 -64 c-14 -11
-15 -14 -4 -15 13 0 13 -2 0 -9 -8 -6 -18 -7 -24 -4 -5 4 -7 -1 -2 -12 5 -15
4 -16 -9 -5 -14 12 -13 16 6 37 13 12 29 23 38 23 11 0 10 -3 -5 -15z m-63
-72 c13 -16 12 -17 -3 -4 -17 13 -22 21 -14 21 2 0 10 -8 17 -17z m84 -23 c-3
-5 -12 -10 -18 -10 -7 0 -6 4 3 10 19 12 23 12 15 0z"/>
<path d="M2155 4357 c-114 -38 -181 -96 -228 -195 -26 -56 -31 -80 -35 -169
-6 -126 9 -224 54 -363 35 -108 156 -370 171 -370 4 0 18 16 30 35 12 18 69
92 125 162 171 213 451 481 655 626 40 29 73 55 73 59 0 23 -306 156 -450 195
-115 31 -328 42 -395 20z"/>
<path d="M3825 4363 c-52 -8 -184 -43 -243 -64 -72 -26 -332 -150 -332 -159 0
-3 14 -14 31 -24 66 -39 281 -218 403 -337 144 -139 273 -284 381 -430 l74
-98 54 107 c247 484 226 876 -52 983 -44 17 -81 22 -171 25 -63 1 -128 0 -145
-3z"/>
<path d="M3029 3997 c-132 -96 -170 -128 -163 -139 4 -7 2 -8 -4 -4 -17 10
-227 -178 -216 -195 2 -4 -1 -11 -7 -15 -8 -4 -9 -3 -5 4 4 7 2 12 -3 12 -6 0
-11 -5 -11 -10 0 -6 -16 -24 -35 -41 -19 -17 -32 -36 -28 -42 3 -5 1 -7 -4 -4
-13 8 -46 -27 -36 -38 5 -4 3 -5 -4 -2 -14 9 -75 -62 -66 -76 3 -6 1 -7 -4 -4
-14 9 -165 -181 -157 -195 4 -6 2 -8 -3 -5 -6 4 -18 -4 -27 -18 -19 -29 -20
-39 -3 -29 7 4 9 3 4 -2 -5 -5 -14 -9 -20 -9 -7 0 -11 -8 -11 -18 1 -9 -2 -14
-7 -11 -18 11 -21 -27 -4 -54 47 -72 108 -153 112 -148 3 3 0 14 -8 23 -13 16
-12 17 4 4 10 -8 15 -21 12 -31 -3 -10 4 -24 17 -36 13 -11 18 -13 13 -4 -13
21 -15 41 -4 34 5 -3 7 -10 4 -15 -4 -5 -1 -9 5 -9 7 0 9 -7 6 -17 -7 -18 31
-66 45 -57 5 3 6 -1 4 -8 -3 -8 11 -29 32 -48 21 -19 30 -25 20 -13 -14 16
-15 23 -6 29 7 4 10 3 6 -3 -4 -6 0 -16 8 -23 8 -7 12 -17 9 -22 -9 -13 258
-279 274 -273 7 3 10 1 7 -4 -3 -6 32 -41 77 -78 136 -113 182 -145 162 -110
-5 8 -3 8 9 -2 9 -7 15 -17 12 -21 -3 -4 17 -22 45 -40 l49 -31 38 25 c21 15
38 32 38 39 1 6 7 11 14 9 18 -4 72 38 65 50 -4 7 -2 8 4 4 12 -7 116 72 223
172 55 51 58 56 42 69 -16 13 -16 13 5 3 20 -10 28 -5 77 42 30 29 54 59 52
68 -1 8 5 15 13 15 8 1 14 6 13 13 -2 7 3 11 10 9 6 -1 11 4 9 11 -1 8 2 11 7
8 12 -8 33 18 23 29 -4 5 -2 5 5 1 14 -7 56 47 45 59 -4 5 -2 5 4 2 13 -7 78
70 183 215 l63 88 -43 62 c-54 81 -85 118 -93 112 -3 -2 -4 -1 -1 2 8 11 -36
65 -47 58 -6 -4 -8 -2 -5 3 4 6 -3 23 -14 37 -18 23 -23 25 -38 14 -14 -11
-14 -11 -3 3 11 14 8 22 -14 48 -14 17 -31 28 -36 24 -6 -3 -8 -1 -5 4 8 13
-17 36 -27 26 -4 -4 -4 0 -1 8 7 19 -251 272 -268 262 -5 -3 -7 -1 -3 5 8 14
-41 52 -59 46 -7 -3 -16 -1 -20 5 -4 7 1 9 12 5 11 -3 7 4 -12 21 -53 46 -112
84 -120 77 -5 -4 -5 -2 -2 4 8 14 -79 77 -95 68 -7 -4 -8 -3 -4 4 6 10 -22 32
-41 32 -4 0 -47 -29 -94 -63z m205 -16 c17 -19 17 -19 0 -17 -9 2 -18 10 -20
19 -3 21 -1 21 20 -2z m-283 -74 c-10 -9 -11 -8 -5 6 3 10 9 15 12 12 3 -3 0
-11 -7 -18z m-26 -7 c-3 -5 -1 -10 6 -10 7 0 10 -3 6 -6 -9 -9 -28 6 -22 17 4
5 8 9 11 9 3 0 2 -4 -1 -10z m-78 -78 c-17 -18 -51 -27 -41 -10 3 5 9 6 14 3
4 -3 13 2 20 10 7 8 15 15 18 15 3 0 -2 -8 -11 -18z m22 -15 c-2 -1 -13 -9
-24 -17 -19 -14 -19 -14 -6 3 7 9 18 17 24 17 6 0 8 -1 6 -3z m-95 -42 c-9
-14 -19 -23 -22 -20 -3 3 -15 -3 -26 -12 -21 -18 -21 -18 -2 5 11 12 21 20 24
17 3 -3 11 4 19 15 21 29 26 24 7 -5z m-19 -44 c3 -5 2 -12 -3 -15 -5 -3 -9 1
-9 9 0 17 3 19 12 6z m-41 -28 c10 -25 -10 -39 -23 -15 -10 19 -6 32 10 32 4
0 10 -8 13 -17z m-23 -41 c19 -19 19 -19 -3 -17 -12 1 -22 9 -24 18 -3 22 2
21 27 -1z m-91 -46 c0 -2 -8 -10 -17 -17 -16 -13 -17 -12 -4 4 13 16 21 21 21
13z m1075 -16 c10 -11 16 -20 13 -20 -3 0 -13 9 -23 20 -10 11 -16 20 -13 20
3 0 13 -9 23 -20z m-27 -15 c-3 -3 -9 2 -12 12 -6 14 -5 15 5 6 7 -7 10 -15 7
-18z m-1052 -4 c-8 -13 19 -21 33 -10 8 6 8 5 1 -3 -11 -13 -52 -19 -44 -6 3
4 -1 8 -8 8 -9 0 -9 3 2 10 19 12 23 12 16 1z m734 -64 c37 0 47 -2 30 -7 -23
-6 -22 -7 13 -14 21 -4 46 -9 55 -12 9 -2 4 2 -13 10 -20 10 -24 15 -12 16 9
0 26 -9 37 -20 26 -26 68 -42 83 -33 7 3 9 2 4 -2 -9 -11 112 -77 126 -68 6 3
7 1 4 -4 -8 -12 20 -26 33 -18 5 3 12 0 16 -6 4 -8 3 -9 -4 -5 -7 4 -12 4 -12
0 0 -7 24 -28 52 -44 14 -9 16 -7 11 7 -3 10 -3 15 1 11 4 -3 9 -12 10 -20 1
-7 7 -23 14 -35 7 -12 12 -30 12 -39 0 -25 -39 -64 -64 -64 -12 0 -57 27 -101
60 -231 173 -561 213 -825 99 -38 -16 -48 -25 -38 -31 10 -7 8 -8 -4 -4 -22 7
-50 -3 -42 -15 3 -5 -1 -6 -8 -4 -8 3 -22 -2 -33 -11 -11 -8 -14 -13 -7 -9 17
9 15 0 -5 -16 -11 -10 -14 -10 -9 -1 11 18 -9 15 -25 -5 -10 -11 -10 -14 -1
-9 18 11 15 1 -5 -15 -11 -10 -14 -10 -9 -1 10 17 -9 15 -23 -2 -9 -11 -9 -15
1 -19 7 -3 4 -5 -7 -6 -11 0 -34 -3 -50 -7 -23 -4 -35 -1 -49 15 -24 26 -25
97 -1 118 4 4 5 2 1 -4 -12 -22 4 -14 52 24 57 45 72 59 53 48 -10 -5 -12 -4
-7 4 4 6 12 9 17 6 13 -9 69 27 62 38 -3 6 -1 7 5 3 17 -10 85 26 70 37 -9 6
-7 7 5 3 25 -8 68 4 60 17 -3 5 -1 7 5 3 16 -10 104 16 89 26 -7 5 -2 7 13 3
14 -2 50 0 80 5 30 5 107 6 170 3 63 -3 140 -6 170 -6z m-810 -1 c0 -2 -8 -10
-17 -17 -16 -13 -17 -12 -4 4 13 16 21 21 21 13z m-109 -109 l-24 -22 19 27
c10 14 21 24 23 22 3 -3 -6 -15 -18 -27z m1184 15 c-3 -3 -11 0 -18 7 -9 10
-8 11 6 5 10 -3 15 -9 12 -12z m-1035 -56 c0 -2 -8 -10 -17 -17 -16 -13 -17
-12 -4 4 13 16 21 21 21 13z m485 -6 c-3 -5 -12 -10 -18 -10 -7 0 -6 4 3 10
19 12 23 12 15 0z m-694 -23 c-6 -8 -7 -18 -3 -22 4 -5 1 -5 -6 -1 -10 6 -10
11 -1 22 6 8 14 14 16 14 3 0 0 -6 -6 -13z m514 -7 c4 -6 -1 -7 -11 -3 -12 4
-15 3 -10 -5 4 -7 3 -12 -3 -12 -16 0 -22 18 -9 23 20 8 26 8 33 -3z m45 0
c-8 -5 -19 -10 -25 -10 -5 0 -3 5 5 10 8 5 20 10 25 10 6 0 3 -5 -5 -10z m915
-39 c-1 -9 1 -21 6 -27 5 -7 3 -11 -5 -11 -8 0 -13 7 -11 16 1 9 -1 21 -6 27
-5 7 -3 11 5 11 8 0 13 -7 11 -16z m-325 -5 c0 -2 -7 -6 -15 -10 -8 -3 -15 -1
-15 4 0 6 7 10 15 10 8 0 15 -2 15 -4z m37 -22 c-9 -9 -28 6 -21 18 4 6 10 6
17 -1 6 -6 8 -13 4 -17z m-390 -10 c-3 -3 -12 -4 -19 -1 -8 3 -5 6 6 6 11 1
17 -2 13 -5z m328 -4 c3 -5 1 -10 -4 -10 -6 0 -11 5 -11 10 0 6 2 10 4 10 3 0
8 -4 11 -10z m106 -7 c13 -15 12 -15 -7 -5 -12 6 -25 8 -29 4 -5 -4 -5 -1 -1
6 10 16 21 15 37 -5z m-266 -33 c33 -10 74 -17 92 -16 18 2 30 -1 27 -6 -3 -5
-15 -6 -27 -3 -12 4 2 -7 32 -24 29 -17 59 -35 65 -40 7 -6 18 -6 25 -1 8 4
21 6 29 2 10 -3 13 -1 8 6 -3 6 -2 13 3 16 5 4 8 -2 7 -11 -2 -10 -10 -18 -19
-18 -28 0 -29 -13 -2 -31 22 -14 25 -23 24 -60 -2 -24 -5 -41 -7 -39 -3 3 -12
-1 -20 -7 -17 -15 -82 -18 -79 -5 4 19 -118 85 -198 107 -66 18 -98 22 -180
18 -87 -4 -111 -9 -180 -39 -46 -21 -79 -41 -77 -48 1 -7 -2 -10 -8 -6 -13 8
-42 -14 -35 -25 3 -5 0 -12 -6 -16 -8 -4 -9 -3 -5 4 12 19 4 17 -66 -20 -21
-10 -22 -10 -9 6 13 16 13 17 -4 14 -11 -1 -20 2 -21 7 0 6 -4 23 -9 38 -6 22
-3 35 14 58 18 24 18 27 4 22 -15 -6 -16 -5 -3 9 9 9 18 12 21 6 3 -5 29 5 57
23 28 17 49 35 47 39 -3 5 3 6 13 3 11 -2 26 3 35 12 9 8 18 15 19 14 2 -1 35
5 73 14 39 9 86 18 105 21 61 7 193 -6 255 -24z m-408 4 c-3 -3 -12 -4 -19 -1
-8 3 -5 6 6 6 11 1 17 -2 13 -5z m743 -9 c0 -2 -6 -8 -13 -14 -10 -8 -14 -7
-14 2 0 8 6 14 14 14 7 0 13 -1 13 -2z m365 -15 c-3 -5 -2 -10 2 -10 5 0 14
-10 22 -22 13 -22 13 -22 -12 1 -23 20 -28 41 -11 41 3 0 2 -4 -1 -10z m-345
-14 c0 -3 -4 -8 -10 -11 -5 -3 -10 -1 -10 4 0 6 5 11 10 11 6 0 10 -2 10 -4z
m-151 -45 c-6 -2 -18 4 -27 13 -15 15 -15 15 10 4 15 -7 23 -15 17 -17z m68
-36 c0 -8 -4 -12 -9 -9 -5 3 -6 10 -3 15 9 13 12 11 12 -6z m-1297 -60 l25
-30 -27 24 c-16 14 -28 29 -28 34 0 6 1 8 3 6 1 -2 13 -17 27 -34z m15 15 c10
-11 16 -20 13 -20 -3 0 -13 9 -23 20 -10 11 -16 20 -13 20 3 0 13 -9 23 -20z
m1005 4 c0 -2 -7 -4 -15 -4 -8 0 -15 4 -15 10 0 5 7 7 15 4 8 -4 15 -8 15 -10z
m-420 -27 c-14 -8 -27 -12 -30 -10 -7 6 23 23 40 23 8 0 4 -6 -10 -13z m1046
-22 c-4 -38 -12 -39 -12 -1 0 19 4 32 8 30 3 -2 5 -16 4 -29z m-518 6 c11 -7
10 -9 -3 -14 -9 -4 -13 -3 -10 2 3 5 -5 12 -17 14 -20 4 -20 4 -3 5 11 1 26
-2 33 -7z m37 -30 c3 -5 2 -12 -3 -15 -5 -3 -9 1 -9 9 0 17 3 19 12 6z m448
-16 c-3 -9 -8 -14 -10 -11 -3 3 -2 9 2 15 9 16 15 13 8 -4z m-858 -15 c-3 -5
-16 -10 -28 -9 -20 1 -20 2 3 9 14 4 26 8 28 9 2 1 0 -3 -3 -9z m520 1 c3 -5
2 -12 -3 -15 -5 -3 -9 1 -9 9 0 17 3 19 12 6z m-288 -14 c3 -4 -9 -5 -28 -2
-30 5 -28 3 14 -14 27 -11 55 -25 63 -32 13 -10 17 -10 24 0 5 9 10 10 14 2 4
-6 3 -11 -3 -11 -6 0 -4 -11 4 -26 13 -27 11 -47 -9 -73 -22 -29 -49 -28 -114
2 -56 26 -71 29 -130 25 -65 -5 -137 -31 -128 -46 2 -4 -11 -7 -30 -7 -48 2
-76 30 -72 74 3 30 10 39 53 64 27 16 76 35 108 41 62 13 222 14 234 3z m263
8 c0 -2 -6 -8 -13 -14 -10 -8 -14 -7 -14 2 0 8 6 14 14 14 7 0 13 -1 13 -2z
m-295 -175 c3 -5 -4 -6 -15 -3 -11 3 -22 9 -25 13 -3 5 4 6 15 3 11 -3 22 -9
25 -13z m-707 -15 c-3 -3 -9 2 -12 12 -6 14 -5 15 5 6 7 -7 10 -15 7 -18z
m358 13 c4 -6 3 -8 -4 -4 -5 3 -13 0 -15 -6 -3 -8 -6 -6 -6 5 -1 19 14 23 25
5z m728 -116 c3 -5 -1 -9 -9 -9 -8 0 -12 4 -9 9 3 4 7 8 9 8 2 0 6 -4 9 -8z
m-899 -90 c-3 -3 2 -14 12 -24 9 -10 13 -18 8 -18 -6 0 -45 38 -45 45 0 1 7 2
15 2 8 0 13 -3 10 -5z m728 -89 c-3 -7 -6 -13 -8 -13 -2 0 -5 6 -8 13 -3 8 1
14 8 14 7 0 11 -6 8 -14z m-630 -13 c3 -11 4 -20 3 -20 -1 0 -9 9 -19 20 -13
15 -14 20 -3 20 7 0 16 -9 19 -20z m607 -3 c0 -2 -10 -12 -22 -23 l-23 -19 19
23 c18 21 26 27 26 19z m-536 -40 c3 3 6 1 6 -5 0 -16 -12 -15 -36 4 -18 15
-18 15 2 5 12 -6 24 -7 28 -4z m41 -47 c10 -11 16 -20 13 -20 -3 0 -13 9 -23
20 -10 11 -16 20 -13 20 3 0 13 -9 23 -20z m405 5 c0 -2 -10 -10 -22 -16 -21
-11 -22 -11 -9 4 13 16 31 23 31 12z m-119 -38 c-6 -8 -7 -18 -3 -22 4 -5 1
-5 -6 -1 -10 6 -10 11 -1 22 6 8 14 14 16 14 3 0 0 -6 -6 -13z m39 -27 c-8 -5
-19 -10 -25 -10 -5 0 -3 5 5 10 8 5 20 10 25 10 6 0 3 -5 -5 -10z m-148 -54
c10 6 11 4 0 -7 -10 -11 -15 -10 -30 6 -15 17 -15 18 0 6 9 -7 23 -9 30 -5z"/>
<path d="M2696 3687 c3 -10 9 -15 12 -12 3 3 0 11 -7 18 -10 9 -11 8 -5 -6z"/>
<path d="M1717 3885 c-20 -42 -34 -81 -31 -87 4 -6 3 -8 -4 -4 -17 10 -99
-212 -88 -240 3 -8 2 -13 -3 -10 -11 7 -38 -117 -52 -240 -6 -53 -9 -156 -6
-228 5 -134 25 -285 36 -268 3 6 6 -9 6 -31 1 -52 64 -249 78 -240 6 3 7 1 4
-5 -9 -14 3 -43 14 -36 5 3 6 -2 3 -10 -8 -21 6 -43 16 -26 5 9 9 9 14 1 4 -6
2 -11 -3 -11 -6 0 -11 -7 -11 -16 0 -9 5 -12 12 -8 7 4 8 3 4 -4 -4 -7 5 -35
21 -64 l28 -52 8 85 c4 46 5 92 3 102 -2 9 -1 15 3 13 10 -7 43 133 34 147 -3
7 -2 9 2 5 10 -10 47 92 40 110 -3 7 -1 10 4 7 5 -3 13 5 17 17 4 13 22 56 41
96 18 40 30 78 27 84 -4 6 -3 8 3 5 13 -8 26 20 16 35 -3 6 -1 8 5 5 6 -4 23
17 41 48 39 68 40 77 18 80 -11 2 -22 7 -25 11 -4 4 1 4 11 1 21 -8 22 2 1 31
-24 35 -128 250 -149 309 -10 29 -23 49 -28 46 -6 -3 -7 -1 -3 5 3 6 -7 59
-24 119 -17 60 -34 151 -38 202 l-7 93 -38 -77z m19 -3 c-17 -16 -18 -16 -5 5
7 12 15 20 18 17 3 -2 -3 -12 -13 -22z m-74 -164 c-8 -8 -9 -4 -5 13 4 13 8
18 11 10 2 -7 -1 -18 -6 -23z m115 -30 c-3 -8 -6 -5 -6 6 -1 11 2 17 5 13 3
-3 4 -12 1 -19z m-115 -33 c-2 -14 -6 -25 -8 -25 -2 0 -4 11 -4 25 0 14 4 25
9 25 4 0 6 -11 3 -25z m145 -87 c-3 -8 -6 -5 -6 6 -1 11 2 17 5 13 3 -3 4 -12
1 -19z m-211 -95 c1 -39 -1 -43 -8 -23 -7 20 -4 70 5 70 1 0 2 -21 3 -47z
m262 -18 c-3 -3 -9 2 -12 12 -6 14 -5 15 5 6 7 -7 10 -15 7 -18z m31 -69 c-3
-3 -11 5 -18 17 -13 21 -12 21 5 5 10 -10 16 -20 13 -22z m59 -117 c10 -13 9
-19 -5 -30 -16 -13 -17 -12 -5 3 9 11 10 18 2 23 -5 3 -10 1 -10 -6 0 -7 -2
-10 -5 -7 -3 3 -3 13 1 22 4 9 7 16 8 14 1 -2 7 -10 14 -19z m-388 -216 c0
-21 -3 -24 -9 -14 -5 8 -7 20 -4 28 8 21 13 15 13 -14z"/>
<path d="M4495 3884 c-17 -157 -71 -344 -145 -502 -22 -46 -37 -89 -33 -95 3
-5 2 -7 -4 -4 -13 8 -36 -41 -27 -55 4 -7 2 -8 -4 -4 -15 9 -43 -45 -37 -73 2
-11 -1 -24 -7 -27 -7 -5 -9 1 -5 16 5 18 3 20 -6 11 -9 -9 -4 -27 25 -79 21
-37 42 -66 47 -65 6 2 8 -4 5 -11 -7 -18 14 -58 26 -51 6 3 7 0 5 -7 -6 -16
60 -165 67 -152 3 5 3 3 1 -4 -2 -8 11 -54 27 -104 17 -49 36 -118 42 -153 7
-35 15 -62 18 -60 4 2 4 -9 2 -26 -2 -16 -1 -50 3 -76 5 -37 9 -44 16 -30 6 9
7 22 3 29 -4 7 -3 8 4 4 6 -3 16 2 21 13 14 26 14 34 -1 25 -7 -4 -8 -3 -4 5
4 6 11 9 16 6 12 -7 21 23 15 53 -4 20 -3 22 3 8 17 -38 121 258 107 307 -4
15 -3 18 3 8 17 -23 34 103 39 289 6 203 -9 338 -58 502 -36 122 -107 290
-120 282 -5 -3 -7 1 -4 8 3 7 -4 26 -14 42 l-19 29 -7 -59z m55 -38 c0 -3 -4
-8 -10 -11 -5 -3 -10 -1 -10 4 0 6 5 11 10 11 6 0 10 -2 10 -4z m30 -71 c0 -5
-5 -3 -10 5 -5 8 -10 20 -10 25 0 6 5 3 10 -5 5 -8 10 -19 10 -25z m20 -55 c0
-6 -5 -8 -10 -5 -6 3 -13 -1 -16 -9 -3 -9 -11 -13 -16 -10 -6 4 -4 11 6 16 12
7 15 16 10 31 -6 19 -5 20 10 5 9 -9 16 -22 16 -28z m27 -80 c-1 -12 -5 -16
-10 -11 -5 5 -6 14 -3 20 11 16 15 13 13 -9z m53 -165 c0 -5 -5 -3 -10 5 -5 8
-10 20 -10 25 0 6 5 3 10 -5 5 -8 10 -19 10 -25z m-3 -37 c-3 -8 -6 -5 -6 6
-1 11 2 17 5 13 3 -3 4 -12 1 -19z m-302 -49 c-13 -25 -14 -34 -4 -47 12 -16
12 -16 -5 -1 -17 15 -17 19 -2 48 9 17 19 31 22 31 2 0 -3 -14 -11 -31z m-51
-415 c3 -8 2 -12 -4 -9 -6 3 -10 10 -10 16 0 14 7 11 14 -7z m373 -56 c-3 -8
-6 -5 -6 6 -1 11 2 17 5 13 3 -3 4 -12 1 -19z m-111 -400 c-18 -26 -22 -17 -5
14 6 11 13 17 16 15 3 -3 -2 -16 -11 -29z"/>
<path d="M562 3299 c-13 -5 -21 -13 -17 -18 3 -5 0 -13 -6 -17 -8 -4 -9 -3 -5
4 4 7 2 12 -4 12 -6 0 -24 -21 -40 -47 -22 -35 -30 -59 -30 -94 0 -55 15 -103
30 -94 5 3 7 0 4 -8 -7 -20 48 -64 98 -78 30 -8 53 -8 87 1 55 14 72 26 64 48
-4 15 -3 15 6 2 10 -13 14 -11 31 10 22 28 40 82 40 120 -1 60 -56 138 -113
159 -34 13 -113 13 -145 0z m213 -59 c3 -6 -1 -7 -9 -4 -18 7 -21 14 -7 14 6
0 13 -4 16 -10z m32 -122 c-3 -7 -5 -2 -5 12 0 14 2 19 5 13 2 -7 2 -19 0 -25z
m-273 -117 c-2 -3 -12 3 -22 13 -16 17 -16 18 5 5 12 -7 20 -15 17 -18z"/>
<path d="M5540 3294 c-28 -12 -32 -17 -20 -25 12 -8 10 -9 -7 -4 -18 5 -26 -2
-48 -40 -24 -39 -27 -54 -23 -106 2 -32 10 -65 18 -72 10 -10 11 -9 5 2 -5 9
-4 12 3 7 6 -4 9 -13 6 -20 -8 -21 54 -68 80 -61 16 5 17 4 7 -4 -20 -13 46
-25 91 -16 89 19 143 86 143 177 0 101 -75 177 -175 177 -25 0 -61 -7 -80 -15z
m195 -40 c9 -15 12 -23 6 -20 -11 7 -35 46 -28 46 3 0 12 -12 22 -26z m-237
-23 c-7 -11 -16 -17 -22 -14 -5 3 -1 12 9 20 25 18 27 17 13 -6z m289 -103
c-3 -7 -5 -2 -5 12 0 14 2 19 5 13 2 -7 2 -19 0 -25z m-63 -106 c3 -5 -1 -9
-9 -9 -8 0 -12 4 -9 9 3 4 7 8 9 8 2 0 6 -4 9 -8z"/>
<path d="M950 3135 l0 -55 209 0 c158 0 211 3 214 13 4 10 6 10 6 0 1 -7 6
-13 11 -13 6 0 10 25 10 55 l0 55 -225 0 -225 0 0 -55z m440 -10 c0 -8 -7 -15
-15 -15 -13 0 -14 3 -3 15 16 18 18 18 18 0z"/>
<path d="M4860 3135 l0 -55 225 0 225 0 -5 25 c-15 74 -16 80 -5 65 8 -13 10
-13 10 3 0 16 -17 17 -225 17 l-225 0 0 -55z m17 -27 c-2 -13 -4 -3 -4 22 0
25 2 35 4 23 2 -13 2 -33 0 -45z"/>
<path d="M2073 2932 c-55 -102 -125 -276 -153 -382 -15 -56 -24 -127 -27 -207
-5 -104 -2 -131 16 -190 35 -117 102 -188 220 -235 46 -18 76 -22 171 -22 125
0 184 10 330 56 97 30 352 147 364 166 3 5 -24 32 -61 58 -243 174 -556 484
-747 742 -37 50 -69 92 -70 92 0 0 -20 -35 -43 -78z"/>
<path d="M4106 2970 c-63 -96 -242 -306 -366 -430 -143 -144 -281 -264 -410
-357 -43 -31 -77 -60 -75 -64 11 -17 261 -131 360 -164 301 -100 526 -79 654
60 73 80 96 155 94 305 -1 140 -36 287 -108 455 -41 97 -112 235 -120 235 -1
0 -14 -18 -29 -40z"/>
<path d="M3109 2033 c-1 -5 -1 -12 0 -16 1 -5 -3 -6 -8 -2 -10 6 -71 -21 -71
-31 0 -3 5 -2 12 2 7 4 8 3 4 -5 -4 -6 -11 -9 -16 -6 -12 7 -100 -37 -94 -47
3 -4 -3 -5 -12 -1 -13 5 -15 3 -9 -7 5 -8 4 -11 -3 -7 -15 10 -43 -3 -35 -16
3 -5 1 -7 -4 -4 -6 4 -51 -8 -100 -27 -48 -19 -107 -40 -130 -46 -24 -7 -40
-17 -36 -23 3 -6 1 -7 -5 -3 -7 4 -49 0 -94 -8 -46 -8 -108 -19 -138 -23 l-55
-9 115 -56 c159 -78 390 -148 441 -135 10 3 17 2 14 -3 -12 -20 348 -28 465
-10 104 16 249 53 244 62 -3 4 1 5 9 2 19 -7 179 55 172 67 -4 5 1 6 9 3 14
-5 68 19 129 57 l32 21 -32 -4 c-18 -3 -30 -1 -27 4 3 4 -15 8 -39 8 -25 0
-98 14 -163 31 -66 17 -129 32 -141 33 -12 0 -19 3 -17 5 8 8 -197 92 -208 85
-7 -5 -8 -3 -3 6 6 10 4 12 -9 7 -9 -4 -15 -3 -12 2 3 5 -22 24 -57 41 -34 18
-71 39 -82 46 -21 15 -44 18 -46 7z m131 -66 c0 -2 -8 -3 -18 -3 -10 0 -19 6
-19 13 0 8 6 9 19 2 10 -5 18 -11 18 -12z m-140 -23 c0 -2 -9 0 -20 6 -11 6
-20 13 -20 16 0 2 9 0 20 -6 11 -6 20 -13 20 -16z m275 -44 c3 -6 -1 -7 -9 -4
-18 7 -21 14 -7 14 6 0 13 -4 16 -10z m-500 -30 c3 -6 -1 -7 -9 -4 -18 7 -21
14 -7 14 6 0 13 -4 16 -10z m-145 -50 c8 -5 11 -10 5 -10 -5 0 -17 5 -25 10
-8 5 -10 10 -5 10 6 0 17 -5 25 -10z m-273 -76 c-3 -3 -12 -4 -19 -1 -8 3 -5
6 6 6 11 1 17 -2 13 -5z m1418 -14 c-3 -5 -12 -10 -18 -10 -7 0 -6 4 3 10 19
12 23 12 15 0z m-1360 -39 c3 -5 0 -13 -6 -17 -8 -5 -9 -3 -4 6 6 9 1 10 -16
5 -19 -5 -21 -4 -9 4 19 13 27 14 35 2z m35 -5 c0 -2 -8 -10 -17 -17 -16 -13
-17 -12 -4 4 13 16 21 21 21 13z m50 -11 c7 -8 19 -15 28 -15 8 0 13 -3 9 -6
-7 -8 -67 18 -67 28 0 13 17 9 30 -7z m133 -72 c-7 -2 -19 -2 -25 0 -7 3 -2 5
12 5 14 0 19 -2 13 -5z m52 -13 c13 -6 15 -9 5 -9 -8 0 -22 4 -30 9 -18 12 -2
12 25 0z m712 4 c-3 -3 -12 -4 -19 -1 -8 3 -5 6 6 6 11 1 17 -2 13 -5z m-44
-11 c-7 -2 -21 -2 -30 0 -10 3 -4 5 12 5 17 0 24 -2 18 -5z"/>
<path d="M1800 1883 c-36 -37 -64 -71 -62 -76 1 -5 -2 -6 -7 -3 -14 9 -32 -19
-25 -40 5 -16 4 -16 -5 -4 -8 12 -23 3 -83 -58 l-72 -72 39 -40 c29 -30 42
-37 52 -29 7 6 10 15 7 20 -3 5 0 8 8 7 7 -2 12 3 10 10 -1 8 2 11 7 8 12 -8
33 19 23 30 -4 5 -3 6 2 1 12 -9 57 33 49 46 -3 6 -2 7 4 4 9 -6 112 90 113
106 0 4 2 6 3 5 8 -6 37 25 32 32 -3 5 0 12 6 16 8 5 10 3 4 -7 -4 -8 3 -4 16
9 l24 22 -41 40 -40 41 -64 -68z m57 15 c2 -18 0 -20 -7 -8 -9 14 -15 6 -10
-15 1 -5 -2 -7 -5 -3 -4 4 -17 3 -29 -3 -14 -7 -10 0 12 20 18 17 34 31 35 31
2 0 4 -10 4 -22z m71 -33 c-3 -3 -9 2 -12 12 -6 14 -5 15 5 6 7 -7 10 -15 7
-18z m-188 -79 c0 -3 -4 -8 -10 -11 -5 -3 -10 -1 -10 4 0 6 5 11 10 11 6 0 10
-2 10 -4z m-130 -120 c0 -3 -4 -8 -10 -11 -5 -3 -10 -1 -10 4 0 6 5 11 10 11
6 0 10 -2 10 -4z m-30 -46 c0 -5 -2 -10 -4 -10 -3 0 -8 5 -11 10 -3 6 -1 10 4
10 6 0 11 -4 11 -10z m50 -45 c0 -8 -2 -15 -4 -15 -2 0 -6 7 -10 15 -3 8 -1
15 4 15 6 0 10 -7 10 -15z"/>
<path d="M4372 1938 c-7 -7 -12 -20 -12 -29 0 -10 -5 -21 -12 -25 -7 -5 -8 -3
-3 5 5 9 1 9 -14 -1 -22 -13 -23 -35 -2 -30 7 1 10 -1 7 -6 -7 -12 48 -64 58
-55 4 5 6 3 4 -4 -1 -6 0 -10 4 -9 4 0 18 -15 31 -34 13 -19 29 -34 35 -33 7
2 11 -3 9 -10 -1 -6 4 -11 11 -10 6 2 12 -2 12 -8 0 -21 112 -120 128 -114 13
5 13 3 1 -12 -12 -15 -11 -15 8 1 13 10 20 23 17 28 -3 4 -2 7 3 6 4 -2 18 4
30 13 l22 15 -32 32 c-18 18 -51 50 -74 71 -23 22 -39 42 -36 45 4 3 1 6 -4 6
-12 0 -83 66 -83 77 0 12 -72 73 -81 67 -5 -3 -6 2 -3 10 7 19 -7 21 -24 4z
m253 -338 c3 -6 -1 -7 -9 -4 -18 7 -21 14 -7 14 6 0 13 -4 16 -10z"/>
<path d="M1282 1533 c-47 -23 -84 -75 -89 -127 -6 -53 4 -119 17 -111 6 3 7 0
4 -8 -7 -18 63 -80 83 -73 8 3 11 2 8 -4 -8 -13 57 -23 93 -15 22 4 33 15 41
36 6 17 15 28 20 25 5 -3 14 1 21 9 7 8 18 15 24 15 6 0 0 -9 -14 -19 -13 -11
-27 -18 -31 -15 -4 2 -9 -5 -12 -16 -4 -16 -2 -18 13 -10 30 16 69 69 80 109
11 44 3 111 -12 89 -6 -8 -7 -4 -3 12 19 80 -147 151 -243 103z m-7 -242 c3
-5 2 -12 -3 -15 -5 -3 -9 1 -9 9 0 17 3 19 12 6z m-15 -36 c19 -22 8 -25 -12
-3 -10 10 -14 18 -9 18 5 0 14 -7 21 -15z"/>
<path d="M4828 1543 c-10 -2 -18 -9 -18 -14 0 -5 -6 -8 -12 -6 -7 1 -12 -3
-11 -10 2 -7 -3 -10 -11 -7 -15 6 -40 -21 -32 -34 3 -5 -4 -16 -15 -25 -23
-20 -26 -100 -5 -150 18 -43 67 -84 118 -97 43 -12 114 -5 124 12 5 7 2 8 -6
3 -9 -5 -11 -4 -6 4 4 6 11 9 16 6 28 -17 85 57 95 125 4 33 3 41 -4 30 -8
-11 -10 -7 -5 16 9 48 -42 129 -74 117 -10 -4 -13 -2 -8 5 15 24 -86 41 -146
25z m42 -7 c0 -2 -7 -6 -15 -10 -8 -3 -15 -1 -15 4 0 6 7 10 15 10 8 0 15 -2
15 -4z m-40 -26 c0 -5 -8 -10 -17 -10 -15 0 -16 2 -3 10 19 12 20 12 20 0z
m170 -255 c0 -12 -19 -12 -23 0 -4 9 -1 12 9 8 7 -3 14 -7 14 -8z m-205 -15
c3 -5 1 -10 -4 -10 -6 0 -11 5 -11 10 0 6 2 10 4 10 3 0 8 -4 11 -10z m108
-37 c-7 -2 -19 -2 -25 0 -7 3 -2 5 12 5 14 0 19 -2 13 -5z"/>
<path d="M3070 1175 l0 -225 55 0 55 0 0 225 0 225 -55 0 -55 0 0 -225z m73
208 c-7 -2 -19 -2 -25 0 -7 3 -2 5 12 5 14 0 19 -2 13 -5z"/>
<path d="M3042 803 c-58 -28 -86 -76 -90 -152 -3 -57 0 -71 21 -101 13 -19 29
-34 36 -32 7 1 10 -2 6 -7 -7 -13 39 -37 88 -46 108 -21 222 98 202 209 -9 43
-42 99 -55 91 -6 -4 -9 -1 -8 5 2 7 -13 20 -32 31 -43 24 -123 25 -168 2z m71
0 c-7 -2 -19 -2 -25 0 -7 3 -2 5 12 5 14 0 19 -2 13 -5z m-87 -35 c4 -7 3 -8
-4 -4 -7 4 -12 0 -12 -10 0 -10 -3 -15 -6 -11 -7 6 2 37 10 37 3 0 8 -5 12
-12z m-32 -37 c3 -5 -1 -11 -9 -14 -9 -4 -12 -1 -8 9 6 16 10 17 17 5z m6 -41
c0 -5 -2 -10 -4 -10 -3 0 -8 5 -11 10 -3 6 -1 10 4 10 6 0 11 -4 11 -10z m-10
-125 c11 -13 10 -14 -4 -9 -9 3 -16 10 -16 15 0 13 6 11 20 -6z m135 -85 c13
-6 15 -9 5 -9 -8 0 -22 4 -30 9 -18 12 -2 12 25 0z"/>
</g>
</svg>
